%TF.GenerationSoftware,KiCad,Pcbnew,9.0.2*%
%TF.CreationDate,2025-08-07T20:28:25-04:00*%
%TF.ProjectId,3Dwelderpcbstuff,33447765-6c64-4657-9270-636273747566,rev?*%
%TF.SameCoordinates,Original*%
%TF.FileFunction,Legend,Top*%
%TF.FilePolarity,Positive*%
%FSLAX46Y46*%
G04 Gerber Fmt 4.6, Leading zero omitted, Abs format (unit mm)*
G04 Created by KiCad (PCBNEW 9.0.2) date 2025-08-07 20:28:25*
%MOMM*%
%LPD*%
G01*
G04 APERTURE LIST*
%ADD10C,0.150000*%
%ADD11C,0.040000*%
%ADD12C,0.120000*%
%ADD13C,0.100000*%
G04 APERTURE END LIST*
D10*
X134791666Y-120239819D02*
X134791666Y-120954104D01*
X134791666Y-120954104D02*
X134744047Y-121096961D01*
X134744047Y-121096961D02*
X134648809Y-121192200D01*
X134648809Y-121192200D02*
X134505952Y-121239819D01*
X134505952Y-121239819D02*
X134410714Y-121239819D01*
X135791666Y-121239819D02*
X135220238Y-121239819D01*
X135505952Y-121239819D02*
X135505952Y-120239819D01*
X135505952Y-120239819D02*
X135410714Y-120382676D01*
X135410714Y-120382676D02*
X135315476Y-120477914D01*
X135315476Y-120477914D02*
X135220238Y-120525533D01*
X132945000Y-87774164D02*
X133195000Y-88524164D01*
X133195000Y-88524164D02*
X133445000Y-87774164D01*
X134123571Y-88452735D02*
X134087857Y-88488450D01*
X134087857Y-88488450D02*
X133980714Y-88524164D01*
X133980714Y-88524164D02*
X133909286Y-88524164D01*
X133909286Y-88524164D02*
X133802143Y-88488450D01*
X133802143Y-88488450D02*
X133730714Y-88417021D01*
X133730714Y-88417021D02*
X133695000Y-88345592D01*
X133695000Y-88345592D02*
X133659286Y-88202735D01*
X133659286Y-88202735D02*
X133659286Y-88095592D01*
X133659286Y-88095592D02*
X133695000Y-87952735D01*
X133695000Y-87952735D02*
X133730714Y-87881307D01*
X133730714Y-87881307D02*
X133802143Y-87809878D01*
X133802143Y-87809878D02*
X133909286Y-87774164D01*
X133909286Y-87774164D02*
X133980714Y-87774164D01*
X133980714Y-87774164D02*
X134087857Y-87809878D01*
X134087857Y-87809878D02*
X134123571Y-87845592D01*
X134873571Y-88452735D02*
X134837857Y-88488450D01*
X134837857Y-88488450D02*
X134730714Y-88524164D01*
X134730714Y-88524164D02*
X134659286Y-88524164D01*
X134659286Y-88524164D02*
X134552143Y-88488450D01*
X134552143Y-88488450D02*
X134480714Y-88417021D01*
X134480714Y-88417021D02*
X134445000Y-88345592D01*
X134445000Y-88345592D02*
X134409286Y-88202735D01*
X134409286Y-88202735D02*
X134409286Y-88095592D01*
X134409286Y-88095592D02*
X134445000Y-87952735D01*
X134445000Y-87952735D02*
X134480714Y-87881307D01*
X134480714Y-87881307D02*
X134552143Y-87809878D01*
X134552143Y-87809878D02*
X134659286Y-87774164D01*
X134659286Y-87774164D02*
X134730714Y-87774164D01*
X134730714Y-87774164D02*
X134837857Y-87809878D01*
X134837857Y-87809878D02*
X134873571Y-87845592D01*
X130833571Y-87809878D02*
X130762143Y-87774164D01*
X130762143Y-87774164D02*
X130655000Y-87774164D01*
X130655000Y-87774164D02*
X130547857Y-87809878D01*
X130547857Y-87809878D02*
X130476428Y-87881307D01*
X130476428Y-87881307D02*
X130440714Y-87952735D01*
X130440714Y-87952735D02*
X130405000Y-88095592D01*
X130405000Y-88095592D02*
X130405000Y-88202735D01*
X130405000Y-88202735D02*
X130440714Y-88345592D01*
X130440714Y-88345592D02*
X130476428Y-88417021D01*
X130476428Y-88417021D02*
X130547857Y-88488450D01*
X130547857Y-88488450D02*
X130655000Y-88524164D01*
X130655000Y-88524164D02*
X130726428Y-88524164D01*
X130726428Y-88524164D02*
X130833571Y-88488450D01*
X130833571Y-88488450D02*
X130869285Y-88452735D01*
X130869285Y-88452735D02*
X130869285Y-88202735D01*
X130869285Y-88202735D02*
X130726428Y-88202735D01*
X131190714Y-88524164D02*
X131190714Y-87774164D01*
X131190714Y-87774164D02*
X131619285Y-88524164D01*
X131619285Y-88524164D02*
X131619285Y-87774164D01*
X131976428Y-88524164D02*
X131976428Y-87774164D01*
X131976428Y-87774164D02*
X132154999Y-87774164D01*
X132154999Y-87774164D02*
X132262142Y-87809878D01*
X132262142Y-87809878D02*
X132333571Y-87881307D01*
X132333571Y-87881307D02*
X132369285Y-87952735D01*
X132369285Y-87952735D02*
X132404999Y-88095592D01*
X132404999Y-88095592D02*
X132404999Y-88202735D01*
X132404999Y-88202735D02*
X132369285Y-88345592D01*
X132369285Y-88345592D02*
X132333571Y-88417021D01*
X132333571Y-88417021D02*
X132262142Y-88488450D01*
X132262142Y-88488450D02*
X132154999Y-88524164D01*
X132154999Y-88524164D02*
X131976428Y-88524164D01*
X134669819Y-107613571D02*
X134669819Y-107423095D01*
X134669819Y-107423095D02*
X134717438Y-107327857D01*
X134717438Y-107327857D02*
X134812676Y-107232619D01*
X134812676Y-107232619D02*
X135003152Y-107185000D01*
X135003152Y-107185000D02*
X135336485Y-107185000D01*
X135336485Y-107185000D02*
X135526961Y-107232619D01*
X135526961Y-107232619D02*
X135622200Y-107327857D01*
X135622200Y-107327857D02*
X135669819Y-107423095D01*
X135669819Y-107423095D02*
X135669819Y-107613571D01*
X135669819Y-107613571D02*
X135622200Y-107708809D01*
X135622200Y-107708809D02*
X135526961Y-107804047D01*
X135526961Y-107804047D02*
X135336485Y-107851666D01*
X135336485Y-107851666D02*
X135003152Y-107851666D01*
X135003152Y-107851666D02*
X134812676Y-107804047D01*
X134812676Y-107804047D02*
X134717438Y-107708809D01*
X134717438Y-107708809D02*
X134669819Y-107613571D01*
X135669819Y-106280238D02*
X135669819Y-106756428D01*
X135669819Y-106756428D02*
X134669819Y-106756428D01*
X135146009Y-105946904D02*
X135146009Y-105613571D01*
X135669819Y-105470714D02*
X135669819Y-105946904D01*
X135669819Y-105946904D02*
X134669819Y-105946904D01*
X134669819Y-105946904D02*
X134669819Y-105470714D01*
X135669819Y-105042142D02*
X134669819Y-105042142D01*
X134669819Y-105042142D02*
X134669819Y-104804047D01*
X134669819Y-104804047D02*
X134717438Y-104661190D01*
X134717438Y-104661190D02*
X134812676Y-104565952D01*
X134812676Y-104565952D02*
X134907914Y-104518333D01*
X134907914Y-104518333D02*
X135098390Y-104470714D01*
X135098390Y-104470714D02*
X135241247Y-104470714D01*
X135241247Y-104470714D02*
X135431723Y-104518333D01*
X135431723Y-104518333D02*
X135526961Y-104565952D01*
X135526961Y-104565952D02*
X135622200Y-104661190D01*
X135622200Y-104661190D02*
X135669819Y-104804047D01*
X135669819Y-104804047D02*
X135669819Y-105042142D01*
X135669819Y-103280237D02*
X134669819Y-103280237D01*
X134669819Y-103280237D02*
X134669819Y-102899285D01*
X134669819Y-102899285D02*
X134717438Y-102804047D01*
X134717438Y-102804047D02*
X134765057Y-102756428D01*
X134765057Y-102756428D02*
X134860295Y-102708809D01*
X134860295Y-102708809D02*
X135003152Y-102708809D01*
X135003152Y-102708809D02*
X135098390Y-102756428D01*
X135098390Y-102756428D02*
X135146009Y-102804047D01*
X135146009Y-102804047D02*
X135193628Y-102899285D01*
X135193628Y-102899285D02*
X135193628Y-103280237D01*
X135669819Y-101851666D02*
X135146009Y-101851666D01*
X135146009Y-101851666D02*
X135050771Y-101899285D01*
X135050771Y-101899285D02*
X135003152Y-101994523D01*
X135003152Y-101994523D02*
X135003152Y-102184999D01*
X135003152Y-102184999D02*
X135050771Y-102280237D01*
X135622200Y-101851666D02*
X135669819Y-101946904D01*
X135669819Y-101946904D02*
X135669819Y-102184999D01*
X135669819Y-102184999D02*
X135622200Y-102280237D01*
X135622200Y-102280237D02*
X135526961Y-102327856D01*
X135526961Y-102327856D02*
X135431723Y-102327856D01*
X135431723Y-102327856D02*
X135336485Y-102280237D01*
X135336485Y-102280237D02*
X135288866Y-102184999D01*
X135288866Y-102184999D02*
X135288866Y-101946904D01*
X135288866Y-101946904D02*
X135241247Y-101851666D01*
X135003152Y-101375475D02*
X135669819Y-101375475D01*
X135098390Y-101375475D02*
X135050771Y-101327856D01*
X135050771Y-101327856D02*
X135003152Y-101232618D01*
X135003152Y-101232618D02*
X135003152Y-101089761D01*
X135003152Y-101089761D02*
X135050771Y-100994523D01*
X135050771Y-100994523D02*
X135146009Y-100946904D01*
X135146009Y-100946904D02*
X135669819Y-100946904D01*
X135622200Y-100089761D02*
X135669819Y-100184999D01*
X135669819Y-100184999D02*
X135669819Y-100375475D01*
X135669819Y-100375475D02*
X135622200Y-100470713D01*
X135622200Y-100470713D02*
X135526961Y-100518332D01*
X135526961Y-100518332D02*
X135146009Y-100518332D01*
X135146009Y-100518332D02*
X135050771Y-100470713D01*
X135050771Y-100470713D02*
X135003152Y-100375475D01*
X135003152Y-100375475D02*
X135003152Y-100184999D01*
X135003152Y-100184999D02*
X135050771Y-100089761D01*
X135050771Y-100089761D02*
X135146009Y-100042142D01*
X135146009Y-100042142D02*
X135241247Y-100042142D01*
X135241247Y-100042142D02*
X135336485Y-100518332D01*
X135669819Y-99470713D02*
X135622200Y-99565951D01*
X135622200Y-99565951D02*
X135526961Y-99613570D01*
X135526961Y-99613570D02*
X134669819Y-99613570D01*
X138114286Y-88488450D02*
X138221429Y-88524164D01*
X138221429Y-88524164D02*
X138400000Y-88524164D01*
X138400000Y-88524164D02*
X138471429Y-88488450D01*
X138471429Y-88488450D02*
X138507143Y-88452735D01*
X138507143Y-88452735D02*
X138542857Y-88381307D01*
X138542857Y-88381307D02*
X138542857Y-88309878D01*
X138542857Y-88309878D02*
X138507143Y-88238450D01*
X138507143Y-88238450D02*
X138471429Y-88202735D01*
X138471429Y-88202735D02*
X138400000Y-88167021D01*
X138400000Y-88167021D02*
X138257143Y-88131307D01*
X138257143Y-88131307D02*
X138185714Y-88095592D01*
X138185714Y-88095592D02*
X138150000Y-88059878D01*
X138150000Y-88059878D02*
X138114286Y-87988450D01*
X138114286Y-87988450D02*
X138114286Y-87917021D01*
X138114286Y-87917021D02*
X138150000Y-87845592D01*
X138150000Y-87845592D02*
X138185714Y-87809878D01*
X138185714Y-87809878D02*
X138257143Y-87774164D01*
X138257143Y-87774164D02*
X138435714Y-87774164D01*
X138435714Y-87774164D02*
X138542857Y-87809878D01*
X138864286Y-88524164D02*
X138864286Y-87774164D01*
X138864286Y-87774164D02*
X139042857Y-87774164D01*
X139042857Y-87774164D02*
X139150000Y-87809878D01*
X139150000Y-87809878D02*
X139221429Y-87881307D01*
X139221429Y-87881307D02*
X139257143Y-87952735D01*
X139257143Y-87952735D02*
X139292857Y-88095592D01*
X139292857Y-88095592D02*
X139292857Y-88202735D01*
X139292857Y-88202735D02*
X139257143Y-88345592D01*
X139257143Y-88345592D02*
X139221429Y-88417021D01*
X139221429Y-88417021D02*
X139150000Y-88488450D01*
X139150000Y-88488450D02*
X139042857Y-88524164D01*
X139042857Y-88524164D02*
X138864286Y-88524164D01*
X139578572Y-88309878D02*
X139935715Y-88309878D01*
X139507143Y-88524164D02*
X139757143Y-87774164D01*
X139757143Y-87774164D02*
X140007143Y-88524164D01*
X135592143Y-88488450D02*
X135699286Y-88524164D01*
X135699286Y-88524164D02*
X135877857Y-88524164D01*
X135877857Y-88524164D02*
X135949286Y-88488450D01*
X135949286Y-88488450D02*
X135985000Y-88452735D01*
X135985000Y-88452735D02*
X136020714Y-88381307D01*
X136020714Y-88381307D02*
X136020714Y-88309878D01*
X136020714Y-88309878D02*
X135985000Y-88238450D01*
X135985000Y-88238450D02*
X135949286Y-88202735D01*
X135949286Y-88202735D02*
X135877857Y-88167021D01*
X135877857Y-88167021D02*
X135735000Y-88131307D01*
X135735000Y-88131307D02*
X135663571Y-88095592D01*
X135663571Y-88095592D02*
X135627857Y-88059878D01*
X135627857Y-88059878D02*
X135592143Y-87988450D01*
X135592143Y-87988450D02*
X135592143Y-87917021D01*
X135592143Y-87917021D02*
X135627857Y-87845592D01*
X135627857Y-87845592D02*
X135663571Y-87809878D01*
X135663571Y-87809878D02*
X135735000Y-87774164D01*
X135735000Y-87774164D02*
X135913571Y-87774164D01*
X135913571Y-87774164D02*
X136020714Y-87809878D01*
X136770714Y-88452735D02*
X136735000Y-88488450D01*
X136735000Y-88488450D02*
X136627857Y-88524164D01*
X136627857Y-88524164D02*
X136556429Y-88524164D01*
X136556429Y-88524164D02*
X136449286Y-88488450D01*
X136449286Y-88488450D02*
X136377857Y-88417021D01*
X136377857Y-88417021D02*
X136342143Y-88345592D01*
X136342143Y-88345592D02*
X136306429Y-88202735D01*
X136306429Y-88202735D02*
X136306429Y-88095592D01*
X136306429Y-88095592D02*
X136342143Y-87952735D01*
X136342143Y-87952735D02*
X136377857Y-87881307D01*
X136377857Y-87881307D02*
X136449286Y-87809878D01*
X136449286Y-87809878D02*
X136556429Y-87774164D01*
X136556429Y-87774164D02*
X136627857Y-87774164D01*
X136627857Y-87774164D02*
X136735000Y-87809878D01*
X136735000Y-87809878D02*
X136770714Y-87845592D01*
X137449286Y-88524164D02*
X137092143Y-88524164D01*
X137092143Y-88524164D02*
X137092143Y-87774164D01*
X128407200Y-137433332D02*
X128454819Y-137290475D01*
X128454819Y-137290475D02*
X128454819Y-137052380D01*
X128454819Y-137052380D02*
X128407200Y-136957142D01*
X128407200Y-136957142D02*
X128359580Y-136909523D01*
X128359580Y-136909523D02*
X128264342Y-136861904D01*
X128264342Y-136861904D02*
X128169104Y-136861904D01*
X128169104Y-136861904D02*
X128073866Y-136909523D01*
X128073866Y-136909523D02*
X128026247Y-136957142D01*
X128026247Y-136957142D02*
X127978628Y-137052380D01*
X127978628Y-137052380D02*
X127931009Y-137242856D01*
X127931009Y-137242856D02*
X127883390Y-137338094D01*
X127883390Y-137338094D02*
X127835771Y-137385713D01*
X127835771Y-137385713D02*
X127740533Y-137433332D01*
X127740533Y-137433332D02*
X127645295Y-137433332D01*
X127645295Y-137433332D02*
X127550057Y-137385713D01*
X127550057Y-137385713D02*
X127502438Y-137338094D01*
X127502438Y-137338094D02*
X127454819Y-137242856D01*
X127454819Y-137242856D02*
X127454819Y-137004761D01*
X127454819Y-137004761D02*
X127502438Y-136861904D01*
X127454819Y-136528570D02*
X128454819Y-136290475D01*
X128454819Y-136290475D02*
X127740533Y-136099999D01*
X127740533Y-136099999D02*
X128454819Y-135909523D01*
X128454819Y-135909523D02*
X127454819Y-135671428D01*
X128454819Y-134766666D02*
X128454819Y-135338094D01*
X128454819Y-135052380D02*
X127454819Y-135052380D01*
X127454819Y-135052380D02*
X127597676Y-135147618D01*
X127597676Y-135147618D02*
X127692914Y-135242856D01*
X127692914Y-135242856D02*
X127740533Y-135338094D01*
X144075714Y-85699104D02*
X144551904Y-85699104D01*
X143980476Y-85984819D02*
X144313809Y-84984819D01*
X144313809Y-84984819D02*
X144647142Y-85984819D01*
X145504285Y-85984819D02*
X144932857Y-85984819D01*
X145218571Y-85984819D02*
X145218571Y-84984819D01*
X145218571Y-84984819D02*
X145123333Y-85127676D01*
X145123333Y-85127676D02*
X145028095Y-85222914D01*
X145028095Y-85222914D02*
X144932857Y-85270533D01*
X146051904Y-45435180D02*
X146051904Y-44625657D01*
X146051904Y-44625657D02*
X146004285Y-44530419D01*
X146004285Y-44530419D02*
X145956666Y-44482800D01*
X145956666Y-44482800D02*
X145861428Y-44435180D01*
X145861428Y-44435180D02*
X145670952Y-44435180D01*
X145670952Y-44435180D02*
X145575714Y-44482800D01*
X145575714Y-44482800D02*
X145528095Y-44530419D01*
X145528095Y-44530419D02*
X145480476Y-44625657D01*
X145480476Y-44625657D02*
X145480476Y-45435180D01*
X145051904Y-44482800D02*
X144909047Y-44435180D01*
X144909047Y-44435180D02*
X144670952Y-44435180D01*
X144670952Y-44435180D02*
X144575714Y-44482800D01*
X144575714Y-44482800D02*
X144528095Y-44530419D01*
X144528095Y-44530419D02*
X144480476Y-44625657D01*
X144480476Y-44625657D02*
X144480476Y-44720895D01*
X144480476Y-44720895D02*
X144528095Y-44816133D01*
X144528095Y-44816133D02*
X144575714Y-44863752D01*
X144575714Y-44863752D02*
X144670952Y-44911371D01*
X144670952Y-44911371D02*
X144861428Y-44958990D01*
X144861428Y-44958990D02*
X144956666Y-45006609D01*
X144956666Y-45006609D02*
X145004285Y-45054228D01*
X145004285Y-45054228D02*
X145051904Y-45149466D01*
X145051904Y-45149466D02*
X145051904Y-45244704D01*
X145051904Y-45244704D02*
X145004285Y-45339942D01*
X145004285Y-45339942D02*
X144956666Y-45387561D01*
X144956666Y-45387561D02*
X144861428Y-45435180D01*
X144861428Y-45435180D02*
X144623333Y-45435180D01*
X144623333Y-45435180D02*
X144480476Y-45387561D01*
X143718571Y-44958990D02*
X143575714Y-44911371D01*
X143575714Y-44911371D02*
X143528095Y-44863752D01*
X143528095Y-44863752D02*
X143480476Y-44768514D01*
X143480476Y-44768514D02*
X143480476Y-44625657D01*
X143480476Y-44625657D02*
X143528095Y-44530419D01*
X143528095Y-44530419D02*
X143575714Y-44482800D01*
X143575714Y-44482800D02*
X143670952Y-44435180D01*
X143670952Y-44435180D02*
X144051904Y-44435180D01*
X144051904Y-44435180D02*
X144051904Y-45435180D01*
X144051904Y-45435180D02*
X143718571Y-45435180D01*
X143718571Y-45435180D02*
X143623333Y-45387561D01*
X143623333Y-45387561D02*
X143575714Y-45339942D01*
X143575714Y-45339942D02*
X143528095Y-45244704D01*
X143528095Y-45244704D02*
X143528095Y-45149466D01*
X143528095Y-45149466D02*
X143575714Y-45054228D01*
X143575714Y-45054228D02*
X143623333Y-45006609D01*
X143623333Y-45006609D02*
X143718571Y-44958990D01*
X143718571Y-44958990D02*
X144051904Y-44958990D01*
D11*
%TO.C,J1*%
X129215000Y-84685000D02*
X129215000Y-122685000D01*
X129215000Y-89685000D02*
X141215000Y-89685000D01*
X129215000Y-119185000D02*
X141215000Y-119185000D01*
X129215000Y-122685000D02*
X141215000Y-122685000D01*
X141215000Y-84685000D02*
X129215000Y-84685000D01*
X141215000Y-122685000D02*
X141215000Y-84685000D01*
D12*
%TO.C,SW1*%
X129300000Y-125300000D02*
X131700000Y-125300000D01*
X129300000Y-129400000D02*
X129300000Y-125300000D01*
X129300000Y-133400000D02*
X129300000Y-137500000D01*
X129300000Y-137500000D02*
X141100000Y-137500000D01*
X131100000Y-138600000D02*
X131400000Y-138900000D01*
X131100000Y-139200000D02*
X131100000Y-138600000D01*
X131400000Y-138900000D02*
X131100000Y-139200000D01*
X133900000Y-125300000D02*
X136500000Y-125300000D01*
X134700000Y-131400000D02*
X135700000Y-131400000D01*
X135200000Y-131900000D02*
X135200000Y-130900000D01*
X138700000Y-125300000D02*
X141100000Y-125300000D01*
X141100000Y-125300000D02*
X141100000Y-129400000D01*
X141100000Y-133400000D02*
X141100000Y-137500000D01*
X138200000Y-131400000D02*
G75*
G02*
X132200000Y-131400000I-3000000J0D01*
G01*
X132200000Y-131400000D02*
G75*
G02*
X138200000Y-131400000I3000000J0D01*
G01*
%TO.C,J6*%
D13*
X134350000Y-68830000D02*
X122850000Y-68830000D01*
X122850000Y-83570000D01*
X134350000Y-83570000D01*
X134350000Y-68830000D01*
%TO.C,J2*%
X134350000Y-38180000D02*
X122850000Y-38180000D01*
X122850000Y-68160000D01*
X134350000Y-68160000D01*
X134350000Y-38180000D01*
D12*
%TO.C,A1*%
X135770000Y-40950000D02*
X135770000Y-84390000D01*
X135770000Y-40950000D02*
X140850000Y-40950000D01*
X135770000Y-84390000D02*
X153810000Y-84390000D01*
X138440000Y-43620000D02*
X135770000Y-43620000D01*
X138440000Y-81720000D02*
X135770000Y-81720000D01*
X138440000Y-81720000D02*
X138440000Y-43620000D01*
X140850000Y-38410000D02*
X148730000Y-38410000D01*
X140850000Y-48830000D02*
X140850000Y-38410000D01*
X148730000Y-38410000D02*
X148730000Y-48830000D01*
X148730000Y-48830000D02*
X140850000Y-48830000D01*
X151140000Y-43620000D02*
X153810000Y-43620000D01*
X151140000Y-79180000D02*
X151140000Y-43620000D01*
X151140000Y-79180000D02*
X151140000Y-81720000D01*
X151140000Y-79180000D02*
X153810000Y-79180000D01*
X151140000Y-81720000D02*
X153810000Y-81720000D01*
X153810000Y-40950000D02*
X148730000Y-40950000D01*
X153810000Y-79180000D02*
X153810000Y-40950000D01*
X153810000Y-84390000D02*
X153810000Y-81720000D01*
%TD*%
M02*
