%TF.GenerationSoftware,KiCad,Pcbnew,9.0.2*%
%TF.CreationDate,2025-08-07T20:28:25-04:00*%
%TF.ProjectId,3Dwelderpcbstuff,33447765-6c64-4657-9270-636273747566,rev?*%
%TF.SameCoordinates,Original*%
%TF.FileFunction,Copper,L1,Top*%
%TF.FilePolarity,Positive*%
%FSLAX46Y46*%
G04 Gerber Fmt 4.6, Leading zero omitted, Abs format (unit mm)*
G04 Created by KiCad (PCBNEW 9.0.2) date 2025-08-07 20:28:25*
%MOMM*%
%LPD*%
G01*
G04 APERTURE LIST*
G04 Aperture macros list*
%AMRoundRect*
0 Rectangle with rounded corners*
0 $1 Rounding radius*
0 $2 $3 $4 $5 $6 $7 $8 $9 X,Y pos of 4 corners*
0 Add a 4 corners polygon primitive as box body*
4,1,4,$2,$3,$4,$5,$6,$7,$8,$9,$2,$3,0*
0 Add four circle primitives for the rounded corners*
1,1,$1+$1,$2,$3*
1,1,$1+$1,$4,$5*
1,1,$1+$1,$6,$7*
1,1,$1+$1,$8,$9*
0 Add four rect primitives between the rounded corners*
20,1,$1+$1,$2,$3,$4,$5,0*
20,1,$1+$1,$4,$5,$6,$7,0*
20,1,$1+$1,$6,$7,$8,$9,0*
20,1,$1+$1,$8,$9,$2,$3,0*%
G04 Aperture macros list end*
%TA.AperFunction,ComponentPad*%
%ADD10R,1.700000X1.700000*%
%TD*%
%TA.AperFunction,ComponentPad*%
%ADD11O,1.700000X1.700000*%
%TD*%
%TA.AperFunction,ComponentPad*%
%ADD12R,2.000000X2.000000*%
%TD*%
%TA.AperFunction,ComponentPad*%
%ADD13C,2.000000*%
%TD*%
%TA.AperFunction,ComponentPad*%
%ADD14C,3.200000*%
%TD*%
%TA.AperFunction,ComponentPad*%
%ADD15RoundRect,0.300000X-0.700000X1.450000X-0.700000X-1.450000X0.700000X-1.450000X0.700000X1.450000X0*%
%TD*%
%TA.AperFunction,ComponentPad*%
%ADD16R,1.600000X1.600000*%
%TD*%
%TA.AperFunction,ComponentPad*%
%ADD17O,1.600000X1.600000*%
%TD*%
%TA.AperFunction,ComponentPad*%
%ADD18R,2.000000X1.905000*%
%TD*%
%TA.AperFunction,ComponentPad*%
%ADD19O,2.000000X1.905000*%
%TD*%
%TA.AperFunction,ComponentPad*%
%ADD20RoundRect,0.250000X0.750000X-0.600000X0.750000X0.600000X-0.750000X0.600000X-0.750000X-0.600000X0*%
%TD*%
%TA.AperFunction,ComponentPad*%
%ADD21O,2.000000X1.700000*%
%TD*%
%TA.AperFunction,ViaPad*%
%ADD22C,0.600000*%
%TD*%
%TA.AperFunction,Conductor*%
%ADD23C,1.500000*%
%TD*%
%TA.AperFunction,Conductor*%
%ADD24C,0.200000*%
%TD*%
G04 APERTURE END LIST*
D10*
%TO.P,J1,1,Pin_1*%
%TO.N,/SDA*%
X131405000Y-86185000D03*
D11*
%TO.P,J1,2,Pin_2*%
%TO.N,/SCL*%
X133945000Y-86185000D03*
%TO.P,J1,3,Pin_3*%
%TO.N,+5V*%
X136485000Y-86185000D03*
%TO.P,J1,4,Pin_4*%
%TO.N,GND*%
X139025000Y-86185000D03*
%TD*%
D12*
%TO.P,SW1,A,A*%
%TO.N,/EC11A*%
X132700000Y-138900000D03*
D13*
%TO.P,SW1,B,B*%
%TO.N,/EC11B*%
X137700000Y-138900000D03*
%TO.P,SW1,C,C*%
%TO.N,GND*%
X135200000Y-138900000D03*
D14*
%TO.P,SW1,MP*%
%TO.N,N/C*%
X129600000Y-131400000D03*
X140800000Y-131400000D03*
D13*
%TO.P,SW1,S1,S1*%
%TO.N,/EC11SWA*%
X137700000Y-124400000D03*
%TO.P,SW1,S2,S2*%
%TO.N,/EC11SWB*%
X132700000Y-124400000D03*
%TD*%
D15*
%TO.P,J6,1,Pin_1*%
%TO.N,+24V*%
X132600000Y-72390000D03*
%TO.P,J6,2,Pin_2*%
%TO.N,/Heater GND*%
X132600000Y-80010000D03*
%TD*%
%TO.P,J2,1,Pin_1*%
%TO.N,+12V*%
X132600000Y-41740000D03*
%TO.P,J2,2,Pin_2*%
%TO.N,GND*%
X132600000Y-49360000D03*
%TO.P,J2,3,Pin_3*%
%TO.N,+24V*%
X132600000Y-56980000D03*
%TO.P,J2,4,Pin_4*%
%TO.N,GND*%
X132600000Y-64600000D03*
%TD*%
D16*
%TO.P,A1,1,D1/TX*%
%TO.N,unconnected-(A1-D1{slash}TX-Pad1)*%
X152410000Y-80450000D03*
D17*
%TO.P,A1,2,D0/RX*%
%TO.N,unconnected-(A1-D0{slash}RX-Pad2)*%
X152410000Y-77910000D03*
%TO.P,A1,3,~{RESET}*%
%TO.N,unconnected-(A1-~{RESET}-Pad3)*%
X152410000Y-75370000D03*
%TO.P,A1,4,GND*%
%TO.N,GND*%
X152410000Y-72830000D03*
%TO.P,A1,5,D2*%
%TO.N,unconnected-(A1-D2-Pad5)*%
X152410000Y-70290000D03*
%TO.P,A1,6,D3*%
%TO.N,/Heater*%
X152410000Y-67750000D03*
%TO.P,A1,7,D4*%
%TO.N,/EC11B*%
X152410000Y-65210000D03*
%TO.P,A1,8,D5*%
%TO.N,/EC11A*%
X152410000Y-62670000D03*
%TO.P,A1,9,D6*%
%TO.N,/EC11SWA*%
X152410000Y-60130000D03*
%TO.P,A1,10,D7*%
%TO.N,/EC11SWB*%
X152410000Y-57590000D03*
%TO.P,A1,11,D8*%
%TO.N,unconnected-(A1-D8-Pad11)*%
X152410000Y-55050000D03*
%TO.P,A1,12,D9*%
%TO.N,unconnected-(A1-D9-Pad12)*%
X152410000Y-52510000D03*
%TO.P,A1,13,D10*%
%TO.N,unconnected-(A1-D10-Pad13)*%
X152410000Y-49970000D03*
%TO.P,A1,14,D11*%
%TO.N,unconnected-(A1-D11-Pad14)*%
X152410000Y-47430000D03*
%TO.P,A1,15,D12*%
%TO.N,unconnected-(A1-D12-Pad15)*%
X152410000Y-44890000D03*
%TO.P,A1,16,D13*%
%TO.N,unconnected-(A1-D13-Pad16)*%
X137170000Y-44890000D03*
%TO.P,A1,17,3V3*%
%TO.N,unconnected-(A1-3V3-Pad17)*%
X137170000Y-47430000D03*
%TO.P,A1,18,AREF*%
%TO.N,unconnected-(A1-AREF-Pad18)*%
X137170000Y-49970000D03*
%TO.P,A1,19,A0*%
%TO.N,/Thermistor*%
X137170000Y-52510000D03*
%TO.P,A1,20,A1*%
%TO.N,unconnected-(A1-A1-Pad20)*%
X137170000Y-55050000D03*
%TO.P,A1,21,A2*%
%TO.N,unconnected-(A1-A2-Pad21)*%
X137170000Y-57590000D03*
%TO.P,A1,22,A3*%
%TO.N,unconnected-(A1-A3-Pad22)*%
X137170000Y-60130000D03*
%TO.P,A1,23,A4*%
%TO.N,Net-(A1-A4)*%
X137170000Y-62670000D03*
%TO.P,A1,24,A5*%
%TO.N,Net-(A1-A5)*%
X137170000Y-65210000D03*
%TO.P,A1,25,A6*%
%TO.N,unconnected-(A1-A6-Pad25)*%
X137170000Y-67750000D03*
%TO.P,A1,26,A7*%
%TO.N,unconnected-(A1-A7-Pad26)*%
X137170000Y-70290000D03*
%TO.P,A1,27,+5V*%
%TO.N,+5V*%
X137170000Y-72830000D03*
%TO.P,A1,28,~{RESET}*%
%TO.N,unconnected-(A1-~{RESET}-Pad28)*%
X137170000Y-75370000D03*
%TO.P,A1,29,GND*%
%TO.N,GND*%
X137170000Y-77910000D03*
%TO.P,A1,30,VIN*%
%TO.N,+12V*%
X137170000Y-80450000D03*
%TD*%
D18*
%TO.P,Q2,1,G*%
%TO.N,Net-(Q2-G)*%
X143910000Y-78470000D03*
D19*
%TO.P,Q2,2,D*%
%TO.N,/Heater GND*%
X143910000Y-75930000D03*
%TO.P,Q2,3,S*%
%TO.N,GND*%
X143910000Y-73390000D03*
%TD*%
D20*
%TO.P,J4,1,Pin_1*%
%TO.N,+24V*%
X145310000Y-64090000D03*
D21*
%TO.P,J4,2,Pin_2*%
%TO.N,GND*%
X145310000Y-61590000D03*
%TD*%
D20*
%TO.P,J5,1,Pin_1*%
%TO.N,+5V*%
X145310000Y-55290000D03*
D21*
%TO.P,J5,2,Pin_2*%
%TO.N,/Thermistor*%
X145310000Y-52790000D03*
%TD*%
D22*
%TO.N,/SCL*%
X139500000Y-72000000D03*
%TO.N,/SDA*%
X141000000Y-70500000D03*
X138000000Y-84000000D03*
%TD*%
D23*
%TO.N,GND*%
X141651000Y-62749000D02*
X142810000Y-61590000D01*
X141651000Y-66751000D02*
X141651000Y-62749000D01*
X143910000Y-69010000D02*
X141651000Y-66751000D01*
X142810000Y-61590000D02*
X145310000Y-61590000D01*
X143910000Y-73390000D02*
X143910000Y-69010000D01*
D24*
%TO.N,+5V*%
X140600000Y-61300000D02*
X140600000Y-69400000D01*
X145310000Y-56590000D02*
X140600000Y-61300000D01*
X145310000Y-55290000D02*
X145310000Y-56590000D01*
X140600000Y-69400000D02*
X137170000Y-72830000D01*
%TO.N,GND*%
X145211000Y-74691000D02*
X143910000Y-73390000D01*
X145211000Y-79999000D02*
X145211000Y-74691000D01*
X139025000Y-86185000D02*
X145211000Y-79999000D01*
D23*
X134551000Y-62649000D02*
X132600000Y-64600000D01*
X132600000Y-49360000D02*
X134551000Y-51311000D01*
X134551000Y-51311000D02*
X134551000Y-62649000D01*
D24*
%TO.N,/Thermistor*%
X145310000Y-52790000D02*
X137450000Y-52790000D01*
X137450000Y-52790000D02*
X137170000Y-52510000D01*
%TO.N,/EC11SWA*%
X147801000Y-64739000D02*
X152410000Y-60130000D01*
X147801000Y-114299000D02*
X147801000Y-64739000D01*
X137700000Y-124400000D02*
X147801000Y-114299000D01*
%TO.N,/EC11B*%
X137700000Y-138900000D02*
X148600000Y-128000000D01*
X148600000Y-115906992D02*
X148603000Y-115903992D01*
X148600000Y-128000000D02*
X148600000Y-115906992D01*
X148603000Y-115903992D02*
X148603000Y-69017000D01*
X148603000Y-69017000D02*
X152410000Y-65210000D01*
%TO.N,/EC11SWB*%
X132700000Y-124400000D02*
X147400000Y-109700000D01*
X147400000Y-62600000D02*
X152410000Y-57590000D01*
X147400000Y-109700000D02*
X147400000Y-62600000D01*
%TO.N,/SCL*%
X139500000Y-80630000D02*
X139500000Y-72000000D01*
X133945000Y-86185000D02*
X139500000Y-80630000D01*
%TO.N,/EC11A*%
X132700000Y-138900000D02*
X132700000Y-131239892D01*
X148202000Y-115737892D02*
X148202000Y-66878000D01*
X148202000Y-66878000D02*
X152410000Y-62670000D01*
X132700000Y-131239892D02*
X148202000Y-115737892D01*
%TO.N,/SDA*%
X141000000Y-80999999D02*
X138000000Y-83999999D01*
X138000000Y-83999999D02*
X138000000Y-84000000D01*
X141000000Y-70500000D02*
X141000000Y-80999999D01*
%TO.N,+5V*%
X130254000Y-87336000D02*
X130254000Y-79246000D01*
X135334000Y-87336000D02*
X130254000Y-87336000D01*
X136485000Y-86185000D02*
X135334000Y-87336000D01*
X130254000Y-79246000D02*
X136670000Y-72830000D01*
X136670000Y-72830000D02*
X137170000Y-72830000D01*
%TD*%
M02*
