%TF.GenerationSoftware,KiCad,Pcbnew,9.0.2*%
%TF.CreationDate,2025-08-07T20:28:25-04:00*%
%TF.ProjectId,3Dwelderpcbstuff,33447765-6c64-4657-9270-636273747566,rev?*%
%TF.SameCoordinates,Original*%
%TF.FileFunction,Soldermask,Top*%
%TF.FilePolarity,Negative*%
%FSLAX46Y46*%
G04 Gerber Fmt 4.6, Leading zero omitted, Abs format (unit mm)*
G04 Created by KiCad (PCBNEW 9.0.2) date 2025-08-07 20:28:25*
%MOMM*%
%LPD*%
G01*
G04 APERTURE LIST*
G04 Aperture macros list*
%AMRoundRect*
0 Rectangle with rounded corners*
0 $1 Rounding radius*
0 $2 $3 $4 $5 $6 $7 $8 $9 X,Y pos of 4 corners*
0 Add a 4 corners polygon primitive as box body*
4,1,4,$2,$3,$4,$5,$6,$7,$8,$9,$2,$3,0*
0 Add four circle primitives for the rounded corners*
1,1,$1+$1,$2,$3*
1,1,$1+$1,$4,$5*
1,1,$1+$1,$6,$7*
1,1,$1+$1,$8,$9*
0 Add four rect primitives between the rounded corners*
20,1,$1+$1,$2,$3,$4,$5,0*
20,1,$1+$1,$4,$5,$6,$7,0*
20,1,$1+$1,$6,$7,$8,$9,0*
20,1,$1+$1,$8,$9,$2,$3,0*%
G04 Aperture macros list end*
%ADD10R,1.700000X1.700000*%
%ADD11O,1.700000X1.700000*%
%ADD12C,3.200000*%
%ADD13R,2.000000X2.000000*%
%ADD14C,2.000000*%
%ADD15RoundRect,0.300000X-0.700000X1.450000X-0.700000X-1.450000X0.700000X-1.450000X0.700000X1.450000X0*%
%ADD16R,1.600000X1.600000*%
%ADD17O,1.600000X1.600000*%
%ADD18R,2.000000X1.905000*%
%ADD19O,2.000000X1.905000*%
%ADD20C,1.200000*%
%ADD21RoundRect,0.250000X0.750000X-0.600000X0.750000X0.600000X-0.750000X0.600000X-0.750000X-0.600000X0*%
%ADD22O,2.000000X1.700000*%
G04 APERTURE END LIST*
D10*
%TO.C,J1*%
X131405000Y-86185000D03*
D11*
X133945000Y-86185000D03*
X136485000Y-86185000D03*
X139025000Y-86185000D03*
%TD*%
D12*
%TO.C,REF\u002A\u002A*%
X146500000Y-142400000D03*
%TD*%
D13*
%TO.C,SW1*%
X132700000Y-138900000D03*
D14*
X137700000Y-138900000D03*
X135200000Y-138900000D03*
D12*
X129600000Y-131400000D03*
X140800000Y-131400000D03*
D14*
X137700000Y-124400000D03*
X132700000Y-124400000D03*
%TD*%
D12*
%TO.C,REF\u002A\u002A*%
X136300000Y-34600000D03*
%TD*%
D15*
%TO.C,J6*%
X132600000Y-72390000D03*
X132600000Y-80010000D03*
%TD*%
D12*
%TO.C,REF\u002A\u002A*%
X150700000Y-34600000D03*
%TD*%
%TO.C,REF\u002A\u002A*%
X125900000Y-142400000D03*
%TD*%
D15*
%TO.C,J2*%
X132600000Y-41740000D03*
X132600000Y-49360000D03*
X132600000Y-56980000D03*
X132600000Y-64600000D03*
%TD*%
D16*
%TO.C,A1*%
X152410000Y-80450000D03*
D17*
X152410000Y-77910000D03*
X152410000Y-75370000D03*
X152410000Y-72830000D03*
X152410000Y-70290000D03*
X152410000Y-67750000D03*
X152410000Y-65210000D03*
X152410000Y-62670000D03*
X152410000Y-60130000D03*
X152410000Y-57590000D03*
X152410000Y-55050000D03*
X152410000Y-52510000D03*
X152410000Y-49970000D03*
X152410000Y-47430000D03*
X152410000Y-44890000D03*
X137170000Y-44890000D03*
X137170000Y-47430000D03*
X137170000Y-49970000D03*
X137170000Y-52510000D03*
X137170000Y-55050000D03*
X137170000Y-57590000D03*
X137170000Y-60130000D03*
X137170000Y-62670000D03*
X137170000Y-65210000D03*
X137170000Y-67750000D03*
X137170000Y-70290000D03*
X137170000Y-72830000D03*
X137170000Y-75370000D03*
X137170000Y-77910000D03*
X137170000Y-80450000D03*
%TD*%
D18*
%TO.C,Q2*%
X143910000Y-78470000D03*
D19*
X143910000Y-75930000D03*
X143910000Y-73390000D03*
%TD*%
D20*
%TO.C,J4*%
X143310000Y-65690000D03*
D21*
X145310000Y-64090000D03*
D22*
X145310000Y-61590000D03*
%TD*%
D20*
%TO.C,J5*%
X143310000Y-56890000D03*
D21*
X145310000Y-55290000D03*
D22*
X145310000Y-52790000D03*
%TD*%
M02*
