M48
; DRILL file {KiCad 9.0.2} date 2025-08-07T20:28:27-0400
; FORMAT={-:-/ absolute / metric / decimal}
; #@! TF.CreationDate,2025-08-07T20:28:27-04:00
; #@! TF.GenerationSoftware,Kicad,Pcbnew,9.0.2
; #@! TF.FileFunction,Plated,1,2,PTH
FMAT,2
METRIC
; #@! TA.AperFunction,Plated,PTH,ViaDrill
T1C0.300
; #@! TA.AperFunction,Plated,PTH,ComponentDrill
T2C1.000
; #@! TA.AperFunction,Plated,PTH,ComponentDrill
T3C1.100
; #@! TA.AperFunction,Plated,PTH,ComponentDrill
T4C1.300
; #@! TA.AperFunction,Plated,PTH,ComponentDrill
T5C2.600
%
G90
G05
T1
X138.0Y-84.0
X139.5Y-72.0
X141.0Y-70.5
T2
X131.405Y-86.185
X132.7Y-124.4
X132.7Y-138.9
X133.945Y-86.185
X135.2Y-138.9
X136.485Y-86.185
X137.17Y-44.89
X137.17Y-47.43
X137.17Y-49.97
X137.17Y-52.51
X137.17Y-55.05
X137.17Y-57.59
X137.17Y-60.13
X137.17Y-62.67
X137.17Y-65.21
X137.17Y-67.75
X137.17Y-70.29
X137.17Y-72.83
X137.17Y-75.37
X137.17Y-77.91
X137.17Y-80.45
X137.7Y-124.4
X137.7Y-138.9
X139.025Y-86.185
X145.31Y-52.79
X145.31Y-55.29
X145.31Y-61.59
X145.31Y-64.09
X152.41Y-44.89
X152.41Y-47.43
X152.41Y-49.97
X152.41Y-52.51
X152.41Y-55.05
X152.41Y-57.59
X152.41Y-60.13
X152.41Y-62.67
X152.41Y-65.21
X152.41Y-67.75
X152.41Y-70.29
X152.41Y-72.83
X152.41Y-75.37
X152.41Y-77.91
X152.41Y-80.45
T3
X143.91Y-73.39
X143.91Y-75.93
X143.91Y-78.47
T4
X132.6Y-41.74
X132.6Y-49.36
X132.6Y-56.98
X132.6Y-64.6
X132.6Y-72.39
X132.6Y-80.01
T5
X129.6Y-131.4
X140.8Y-131.4
M30
